<svg   xmlns="http://www.w3.org/2000/svg" xmlns:xlink="http://www.w3.org/1999/xlink" version="1.1" x="0px" y="0px" viewBox="0 0 100 125" style="enable-background:new 0 0 100 100; " xml:space="preserve"><g><path d="M34.9,40.1c9.5,0,17.2-7.7,17.2-17.2S44.4,5.7,34.9,5.7s-17.2,7.7-17.2,17.2S25.4,40.1,34.9,40.1z    M34.9,9.7c7.3,0,13.2,5.9,13.2,13.2s-5.9,13.2-13.2,13.2s-13.2-5.9-13.2-13.2S27.7,9.7,34.9,9.7z"/><path d="M69.1,41.6c6.5,0,11.7-5.3,11.7-11.7s-5.3-11.7-11.7-11.7s-11.7,5.3-11.7,11.7S62.6,41.6,69.1,41.6z    M69.1,22.2c4.2,0,7.7,3.5,7.7,7.7s-3.5,7.7-7.7,7.7s-7.7-3.5-7.7-7.7S64.8,22.2,69.1,22.2z"/><path d="M96.9,90.9L84.1,78.3c2.5-3,4-6.8,4-11c0-2.4-0.5-4.6-1.3-6.7l0.7,0c1,0,1.9-0.8,2-1.8   c1.1-10.6-7.2-15.5-11.7-16.5c-0.5-0.1-1,0-1.4,0.2c-2.9,1.5-6.4,1.8-7.7,1.8h0c-1.6-0.1-4.7-0.4-7.4-1.8c-0.4-0.2-0.9-0.3-1.4-0.2   c-0.1,0-3.1,0.8-6.1,3c-2.9-1.5-5.2-2.2-5.3-2.3c-0.5-0.2-1.1-0.1-1.6,0.1c-0.1,0-5.7,3-12.6,3.4c-6.5,0.5-11.5-3.1-11.6-3.1   c-0.4-0.3-0.9-0.4-1.4-0.4c-4.9,0.5-9.1,2.6-12.6,6.3c-3.9,4.1-6.1,9.6-6.1,15.5l-0.1,9.1c0,0.5,0.2,1.1,0.6,1.4   c0.4,0.4,0.9,0.6,1.4,0.6h51.6c3,5.1,8.5,8.5,14.8,8.5c3.9,0,7.4-1.3,10.3-3.4l12.9,12.7c0.4,0.4,0.9,0.6,1.4,0.6   c0.5,0,1-0.2,1.4-0.6C97.7,92.9,97.7,91.7,96.9,90.9z M60.2,46.3c3.1,1.4,6.5,1.8,8.3,1.9c0,0,0,0,0.1,0c0,0,0,0,0,0c0,0,0,0,0.1,0   c0,0,0,0,0,0c0,0,0,0,0,0c0,0,0,0,0,0c1.5,0,5.3-0.3,8.8-1.9c2,0.7,7.9,3.2,8.1,10.3l-1.1,0c-3.2-4-8-6.6-13.5-6.6   c-2.7,0-5.2,0.6-7.5,1.7c-1.5-1.5-3.4-3-5.6-4.4C58.7,46.8,59.6,46.5,60.2,46.3z M6.5,71.9l0.1-7.1c0.1-4.9,1.8-9.4,5-12.8   c2.7-2.8,5.8-4.5,9.4-5c1.8,1.1,7,3.9,13.5,3.4c6.2-0.4,11.4-2.6,13.4-3.5c1,0.4,3,1.2,5.2,2.4c2.8,1.5,5,3,6.8,4.6   c-3.8,3.2-6.2,7.9-6.2,13.3c0,1.6,0.2,3.2,0.7,4.7H6.5z M57.7,67.2c0-7.3,5.9-13.2,13.2-13.2c7.3,0,13.2,5.9,13.2,13.2   c0,7.3-5.9,13.2-13.2,13.2C63.6,80.4,57.7,74.5,57.7,67.2z"/></g></svg>