<svg xmlns="http://www.w3.org/2000/svg" xmlns:xlink="http://www.w3.org/1999/xlink" version="1.1" x="0px" y="0px" viewBox="0 0 60 75" enable-background="new 0 0 60 60" xml:space="preserve"><g><g><polygon fill="#000000" points="49.653,52.735 27.805,28.187 28.925,27.19 50.083,50.962 52.741,49.935 55.541,47.138     56.613,44.421 32.961,22.732 33.975,21.626 58.387,44.013 56.821,47.978 53.577,51.22   "/></g><g><path fill="#000000" d="M22.273,36.143L8.38,22.248l2.977-2.976l2.516,0.081L24.986,8.236l-0.204-2.39l3.222-3.222L41.9,16.519    l-3.027,3.023l-2.526,0.085L25.248,30.726l0.078,2.365L22.273,36.143z M10.501,22.248l11.772,11.773l1.532-1.532l-0.078-2.364    l11.977-11.977l2.527-0.085l1.547-1.545L28.004,4.746l-1.668,1.668l0.204,2.39l-12.065,12.07l-2.517-0.081L10.501,22.248z"/></g><g><path fill="#000000" d="M36.624,57.064H1.75V49.79h3.195l2.989-4.05h22.615l2.688,4.05h3.386V57.064z M3.25,55.564h31.874V51.29    h-2.691l-2.688-4.05H8.691l-2.989,4.05H3.25V55.564z"/></g></g></svg>