<svg xmlns="http://www.w3.org/2000/svg" width="120" height="120" viewBox="0 0 48 48">
  <g>
    <path d="M17.88965,29.375a4.82671,4.82671,0,0,1-3-1.05713,5.17825,5.17825,0,0,0-6.22754.00342c-2.75682,2.33681-7.46357.47674-7.50195-3.23-.62133-7.41772,7.96243-13.30973,14.7207-10.24268a7.71435,7.71435,0,0,1,14.96,2.59815,7.61679,7.61679,0,0,1-8.46191,7.64306A4.41808,4.41808,0,0,1,17.88965,29.375Zm-6.11719-4.12549a7.04,7.04,0,0,1,4.35059,1.49414c1.51732,1.306,4.202.46383,4.25293-1.63965v-.00341c.00781-.14356.01074-.28858.01074-.43506a7.67074,7.67074,0,0,1-4.63184-4.98242,7.38615,7.38615,0,0,1-.31836-2.83887C10.04017,13.981,2.6077,18.90267,3.15723,24.98242,3.177,27.13469,5.86776,28.06565,7.42678,26.748A7.07609,7.07609,0,0,1,11.77246,25.24951Zm8.18848-3.03076a5.71119,5.71119,0,1,0-2.45117-5.76123,6.86423,6.86423,0,0,0,.21777,2.86475A5.84449,5.84449,0,0,0,19.96094,22.21875Zm3.16406.15967a1.023,1.023,0,0,1-1-1.15869h-.36523a1.0001,1.0001,0,0,1,0-2H23.125c.46748.03808.46595-.78209-.01759-.73095a2.37765,2.37765,0,0,1-.98241-4.51222c-.25214-1.69188,2.03459-1.89521,2-.21875h.36621a1.0001,1.0001,0,0,1,0,2H23.125c-.4664-.03907-.4642.782.01661.731A2.37736,2.37736,0,0,1,24.125,21.001C24.20654,21.68924,23.89356,22.36562,23.125,22.37842ZM11.77441,12.59766A4.91338,4.91338,0,0,1,6.77246,7.66113V7.59961c.247-6.56365,9.75767-6.56308,10.00488,0A4.9285,4.9285,0,0,1,11.77441,12.59766Zm-3.001-4.96729a2.89812,2.89812,0,0,0,3.001,2.96729,2.9011,2.9011,0,0,0,3.00293-2.998A3.00219,3.00219,0,0,0,8.77344,7.63037Z" fill="#666666"/>
  </g>
</svg>

