<svg xmlns="http://www.w3.org/2000/svg" width="100" height="100" version="1.1" viewBox="-5.0 -10.0 110.0 135.0">
 <path d="m76.703 24.008c-0.69141 0-1.25-0.5625-1.25-1.25 0-0.69141 0.5625-1.25 1.25-1.25h0.63672c0.69141 0 1.25 0.5625 1.25 1.25 0 0.69141-0.5625 1.25-1.25 1.25zm-40.086 50.309h-2.918l0.007812 0.20312v4.3711l-0.007812 0.20703h2.918c0.74219 0 1.4219 0.30469 1.9102 0.79688l0.085937 0.09375c0.4375 0.48438 0.70703 1.1211 0.70703 1.8164v4.3711c0 0.74219-0.30469 1.4141-0.79687 1.9062-0.49609 0.49609-1.1719 0.79688-1.9102 0.79688h-2.918l0.007813 0.20312v4.3711l-0.007813 0.20703h23.898c0.69141 0 1.25 0.5625 1.25 1.25 0 0.69141-0.5625 1.25-1.25 1.25h-51.305c-0.74219 0-1.4219-0.30469-1.9102-0.79688-0.48828-0.49609-0.79688-1.1719-0.79688-1.9102v-4.3711c0-0.69531 0.26953-1.3398 0.71094-1.8203l0.085937-0.089844c0.48828-0.48828 1.168-0.79297 1.9102-0.79297h2.918l-0.007812-0.20703v-4.3711l0.007812-0.20703h-2.918c-0.74219 0-1.4219-0.30469-1.9102-0.79688-0.48828-0.49609-0.79688-1.1719-0.79688-1.9102v-4.3711c0-0.69531 0.26953-1.3398 0.71094-1.8203l0.085937-0.089843c0.48828-0.48828 1.168-0.79297 1.9102-0.79297h2.918l-0.007812-0.20703v-4.3711c0-0.74219 0.30469-1.4141 0.79688-1.9062 0.48828-0.49219 1.168-0.79688 1.9102-0.79688h7.9336c0.066406-0.94531 0.11719-1.9375 0.15234-2.9805 0.054687-1.4609 0.082031-3.1445 0.082031-5.0781 0-9.625 3.5391-18.352 9.2578-24.676 4.0508-4.4805 9.1914-7.7539 14.949-9.2969l-1.7891-9.625c-0.12109-0.67578 0.32422-1.3242 1-1.4492 0.67578-0.12109 1.3242 0.32422 1.4492 1l1.7695 9.5312c1.6602-0.29688 3.3672-0.44922 5.1016-0.44922s3.4375 0.15234 5.1016 0.45313l2.2812-12.285c0.082032-0.43359 0.070313-0.85156-0.03125-1.2344-0.097656-0.38281-0.28906-0.75391-0.57422-1.0898-0.28125-0.33984-0.60547-0.59766-0.96484-0.76562-0.35547-0.16406-0.76172-0.25391-1.207-0.25391h-8.4766c-0.69141 0-1.25-0.5625-1.25-1.25 0-0.69141 0.5625-1.25 1.25-1.25h8.4766c0.80469 0 1.5625 0.16797 2.2617 0.49609 0.69141 0.32422 1.3086 0.80859 1.8281 1.4297 0.51953 0.625 0.87891 1.3164 1.0703 2.0547s0.21484 1.5195 0.070313 2.3086l-2.3008 12.383c0.33203 0.089844 0.66797 0.1875 1 0.28906 2.0742 0.63672 4.0664 1.5 5.9414 2.5586v-1.4062c0-0.66406 0.27344-1.2734 0.71484-1.7188 0.4375-0.44531 1.0547-0.71875 1.7227-0.71875h3.9531c0.69141 0 1.25 0.5625 1.25 1.25 0 0.69141-0.5625 1.25-1.25 1.25h-3.8906v3.4453h25.121v-3.4453h-12.562c-0.69141 0-1.25-0.5625-1.25-1.25 0-0.69141 0.5625-1.25 1.25-1.25h12.625c0.66797 0 1.2852 0.27734 1.7227 0.71484l0.089844 0.097656c0.38672 0.43359 0.625 1.0039 0.625 1.6211v3.5664c0 0.67188-0.27734 1.2852-0.71484 1.7227s-1.0508 0.71484-1.7227 0.71484h-3.1797v3.4414h3.1797c0.67188 0 1.2852 0.27734 1.7227 0.71484s0.71484 1.0547 0.71484 1.7227v3.5664c0 0.67188-0.27734 1.2852-0.71484 1.7227s-1.0508 0.71484-1.7227 0.71484h-3.1797v3.5039c0 0.67188-0.27734 1.2852-0.71484 1.7227s-1.0508 0.71484-1.7227 0.71484h-5.793c0.26562 1.1445 0.48047 2.3086 0.64062 3.4961 0.23047 1.7109 0.35547 3.4492 0.35547 5.2031 0 15.766 2.1094 18.785 3.6523 21 1.0781 1.543 1.9297 2.7656 1.9297 6.2773 0 3.4297-1.3906 6.5352-3.6367 8.7812l-0.070312 0.066406c-2.2422 2.2031-5.3164 3.5703-8.707 3.5703h-10.469c-0.69141 0-1.25-0.5625-1.25-1.25 0-0.69141 0.5625-1.25 1.25-1.25h10.469c2.7109 0 5.168-1.0859 6.9531-2.8438l0.058593-0.058593c1.793-1.793 2.9023-4.2734 2.9023-7.0156 0-2.7422-0.65234-3.6758-1.4727-4.8516-1.7383-2.4883-4.1094-5.8906-4.1094-22.422 0-1.6719-0.10938-3.3008-0.32422-4.8711-0.17578-1.3008-0.42188-2.5781-0.73438-3.8281h-16.887c-0.66797 0-1.2852-0.27734-1.7227-0.71484s-0.71484-1.0508-0.71484-1.7227v-3.5664c0-0.66797 0.27734-1.2852 0.71484-1.7227s1.0547-0.71484 1.7227-0.71484h3.1797v-3.4414h-3.1797c-0.66797 0-1.2852-0.27734-1.7227-0.71484-0.44141-0.44531-0.71484-1.0547-0.71484-1.7227v-3.5664c0-0.67188 0.27734-1.2812 0.71484-1.7227 0.4375-0.4375 1.0508-0.71484 1.7227-0.71484h1.8242c-1.6875-0.94141-3.4688-1.7109-5.3203-2.2773-2.4766-0.75781-5.0938-1.168-7.8047-1.168-8.0547 0-15.355 3.6133-20.641 9.4609-5.3164 5.8789-8.6055 14.012-8.6055 23.004 0 1.8164-0.03125 3.5352-0.089844 5.168-0.039062 1.0508-0.085937 2.0117-0.14062 2.8945h14.273c0.74219 0 1.4219 0.30469 1.9102 0.79688l0.085938 0.09375c0.4375 0.48438 0.70703 1.1211 0.70703 1.8164v4.3711c0 0.74219-0.30469 1.4141-0.79688 1.9062-0.49609 0.49609-1.1719 0.79688-1.9102 0.79688zm-5.582-2.5h5.582c0.058593 0 0.10937-0.019531 0.14453-0.058594 0.039062-0.039062 0.058593-0.089843 0.058593-0.14844v-4.3711c0-0.046875-0.015624-0.089843-0.039062-0.12109l-0.019531-0.019532c-0.035157-0.035156-0.089844-0.058594-0.14453-0.058594h-24.715c-0.054688 0-0.10938 0.023438-0.14453 0.058594-0.039062 0.03125-0.058593 0.085938-0.058593 0.14453v4.3711c0 0.054688 0.023437 0.10938 0.058593 0.14453 0.03125 0.039063 0.085938 0.058594 0.14453 0.058594zm-0.03125 2.5h-24.707c-0.058594 0-0.10938 0.023438-0.14453 0.058594l-0.027344 0.023438c-0.019531 0.03125-0.035156 0.074218-0.035156 0.12109v4.3711c0 0.058594 0.023437 0.10938 0.058594 0.14844 0.039062 0.03125 0.09375 0.058594 0.14844 0.058594h24.707c0.054688 0 0.10938-0.023437 0.14453-0.058594l0.019531-0.019531c0.023437-0.03125 0.039062-0.078125 0.039062-0.12109v-4.3711c0-0.058594-0.019531-0.10938-0.058593-0.14453-0.042969-0.035156-0.09375-0.058593-0.14844-0.058593zm0.03125 12.066h5.582c0.058593 0 0.10937-0.019531 0.14453-0.058593 0.039062-0.039063 0.058593-0.089844 0.058593-0.14844v-4.3711c0-0.046876-0.015624-0.089844-0.039062-0.12109l-0.019531-0.019532c-0.035157-0.035156-0.089844-0.058593-0.14453-0.058593h-24.707c-0.054687 0-0.10938 0.023437-0.14453 0.058593-0.039063 0.03125-0.058594 0.085938-0.058594 0.14453v4.3711c0 0.054687 0.023438 0.10937 0.058594 0.14453 0.03125 0.039062 0.085937 0.058593 0.14453 0.058593zm-0.03125 2.5h-24.707c-0.058594 0-0.10938 0.023438-0.14453 0.058594l-0.027344 0.023438c-0.019531 0.03125-0.035156 0.074218-0.035156 0.12109v4.3711c0 0.058594 0.023437 0.10938 0.058594 0.14844 0.039062 0.03125 0.09375 0.058593 0.14844 0.058593h24.711c0.054688 0 0.10938-0.023437 0.14453-0.058593l0.019531-0.019531c0.023437-0.03125 0.039063-0.078126 0.039063-0.12109v-4.3711c0-0.058594-0.019532-0.10938-0.058594-0.14453-0.042969-0.035157-0.09375-0.058594-0.14844-0.058594zm57.301-58.934h-25.121v3.4414h25.121zm0.09375 9.3828h5.5234v-3.4414h-25.121v3.4414zm-0.09375 2.5h-25.121v3.4414h25.121zm-37.73 0.89844c0-0.69141 0.5625-1.25 1.25-1.25 0.69141 0 1.25 0.5625 1.25 1.25v2.0391c1.8047 0.26953 3.418 1.1172 4.6484 2.3477 1.5078 1.5078 2.4414 3.5938 2.4414 5.8945 0 0.69141-0.5625 1.25-1.25 1.25-0.69141 0-1.25-0.5625-1.25-1.25 0-1.6094-0.65234-3.0703-1.7109-4.1289-0.77344-0.77344-1.7656-1.332-2.8789-1.5781v12.832c1.8828 0.64062 3.5625 1.7383 4.8125 3.1562 1.4102 1.6016 2.2773 3.6133 2.2773 5.832 0 2.3047-0.93359 4.3906-2.4414 5.8945-1.2305 1.2305-2.8438 2.0781-4.6484 2.3477v2.0391c0 0.69141-0.5625 1.25-1.25 1.25-0.69141 0-1.25-0.5625-1.25-1.25v-2.0391c-1.8047-0.26953-3.418-1.1172-4.6445-2.3477-1.5078-1.5078-2.4414-3.5938-2.4414-5.8945 0-0.69141 0.5625-1.25 1.25-1.25 0.69141 0 1.25 0.5625 1.25 1.25 0 1.6094 0.65234 3.0703 1.7109 4.1289 0.77344 0.77344 1.7656 1.3359 2.8789 1.5781v-12.836c-1.8828-0.64062-3.5625-1.7383-4.8125-3.1562-1.4062-1.6094-2.2773-3.6172-2.2773-5.832 0-2.3008 0.93359-4.3906 2.4414-5.8945 1.2305-1.2305 2.8438-2.0781 4.6445-2.3477v-2.0391zm2.5 20.086v12.02c1.1094-0.24219 2.1055-0.80078 2.8789-1.5781 1.0547-1.0547 1.7109-2.5156 1.7109-4.1289 0-1.5781-0.62891-3.0195-1.6523-4.1836-0.78125-0.89062-1.7969-1.6211-2.9375-2.1289zm-2.5-3.4844v-12.02c-1.1094 0.24219-2.1016 0.80078-2.8789 1.5781-1.0547 1.0547-1.7109 2.5156-1.7109 4.1289 0 1.5781 0.62891 3.0234 1.6484 4.1875 0.78516 0.88672 1.8008 1.6172 2.9414 2.1289zm-6.0352-51.113c-0.22656 0.65234-0.94141 0.98828-1.5898 0.76172-0.65234-0.22656-0.98828-0.94141-0.76172-1.5898l0.16406-0.39844 0.1875-0.37109c0.33203-0.60156 1.0938-0.81641 1.6953-0.48438s0.81641 1.0938 0.48438 1.6953l-0.17578 0.39062zm17.711 85.445c0.69141 0 1.25 0.5625 1.25 1.25 0 0.69141-0.5625 1.25-1.25 1.25h-0.63672c-0.69141 0-1.25-0.5625-1.25-1.25 0-0.69141 0.5625-1.25 1.25-1.25z"/>
</svg>