<svg xmlns="http://www.w3.org/2000/svg" xmlns:xlink="http://www.w3.org/1999/xlink" version="1.1" x="0px" y="0px" viewBox="0 0 100 125" style="enable-background:new 0 0 100 100;" xml:space="preserve"><path d="M75.5065384,50.4371948c-0.0458984-0.4280396-0.2300415-0.8414307-0.5514526-1.1647339l-1.2763672-1.2822266  c-0.3681641-0.3696289-0.8574219-0.5732422-1.3779297-0.5732422c-0.0009766,0-0.0009766,0-0.0019531,0  c-0.5205078,0.0004883-1.0087891,0.2041016-1.3769531,0.5751953l-0.8931274,0.9014893l-0.5784912-1.0206299  c2.5809937-2.1034546,5.3378296-5.5214844,5.3378296-10.5400391c0-0.4550781,0.0058594-0.9033203,0.0126953-1.34375  c0.015564-1.1367188,0.0274048-2.2258911-0.0623779-3.2709961h4.1903076c0.5527344,0,1-0.4477539,1-1  c0-2.2763672-1.3769531-4.7119141-3.4326172-4.7578125v-0.3710938c0-4.1987305-3.3291016-7.6303711-7.4736328-7.769043  c-0.0078125-2.0810547-1.6972656-3.7714844-3.7724609-3.7714844h-1.3203125c-1.1236572,0-2.1568604,0.5093384-2.8598633,1.3328857  c-1.5430908-1.1698608-3.4056396-1.8217773-5.3735352-1.8450928v-0.1855469C55.6962967,11.9516602,53.7470779,10,51.3515701,10  h-1.59375c-2.390625,0-4.3359375,1.9516602-4.3359375,4.3510742v0.1855469  c-2.2255859,0.027832-4.3546753,0.8912354-5.9922485,2.3659058c-0.659668-1.1047974-1.8527222-1.8536987-3.227478-1.8536987  h-1.3203125c-2.0751953,0-3.7646484,1.6904297-3.7724609,3.7714844c-4.1494141,0.1386719-7.4824219,3.5703125-7.4824219,7.769043  v0.3710938c-1.96875,0.0488281-3.4326172,2.5336914-3.4326172,4.7578125c0,0.5522461,0.4472656,1,1,1h4.2246094  c-0.1151123,1.1915894-0.1096191,2.4440308-0.1044922,3.7509766l0.0029297,0.8637695  c0,5.0300293,2.7681274,8.4462891,5.3560791,10.5438232l-0.6270142,1.1095581l-0.9692993-0.9692993  c-0.3671875-0.3691406-0.8574219-0.5727539-1.3808594-0.5732422h-0.0009766c-0.5234375,0-1.0136719,0.203125-1.3828125,0.5727539  l-1.2675781,1.2739258c-0.3138428,0.3157959-0.4966431,0.7213745-0.5462646,1.1425171  c-4.0269775,1.163147-6.8078613,4.9875488-6.5924072,9.2861938l1.0478516,21.0981445  c0.0263672,0.5322266,0.4658203,0.9501953,0.9990234,0.9501953h10.4591675l0.3630981,7.2827148  C30.802742,89.5820313,31.2412186,90,31.7744217,90H69.193367c0.5332031,0,0.9726563-0.418457,0.9990234-0.9506836  l0.3605347-7.2817383h9.4939575c0.5332031,0,0.9726563-0.4179688,0.9990234-0.9501953l1.0478516-21.0976563  C82.3089676,55.4246826,79.5311966,51.6043091,75.5065384,50.4371948z M70.5117264,51.246582  c0.0015259-0.0014648,0.0020752-0.00354,0.0036011-0.0050049c0.0012207-0.0012207,0.0029907-0.0015869,0.0042114-0.0028076  l1.7412109-1.8374023l1.2763672,1.2148438l-5.0043335,5.0272217c-0.3847046-0.413269-0.8057861-0.7942505-1.2582397-1.1445313  L70.5117264,51.246582z M57.7929764,44.824707c-0.9335938,1.2182617-2.1220703,2.3666992-3.5332031,3.4121094  c-1.6005859,1.1835938-3.0605469,1.9033203-3.7167969,2.199707c-0.12323-0.0562744-0.2828369-0.1326294-0.4586182-0.2192993  c-0.1018066-0.0501709-0.2103882-0.1052856-0.3275146-0.1658325c-0.7496948-0.3875122-1.7893677-0.9829712-2.9111328-1.8092041  c-1.5996094-1.1704102-2.9355469-2.5141602-3.9726563-3.9951172c-1.6132813-2.2910156-2.4316406-4.8491211-2.4316406-7.6035156  l-0.0039063-1.1313477c-0.0078125-1.3125-0.0146484-2.5522461,0.0722656-3.7250977  c0.0204468-0.2981567,0.0747681-0.6065063,0.1130981-0.9082031h19.9362793  c0.0092163,0.085083,0.0122681,0.1815796,0.0198364,0.2694092c0.0177002,0.2064819,0.036377,0.409729,0.0460205,0.6387939  c0.0712891,1.0273438,0.0556641,2.1206055,0.0390625,3.2783203c-0.0068359,0.5175781-0.0146484,1.0444336-0.0146484,1.578125  c0,0.397522-0.0194702,0.7900391-0.0532227,1.178772C60.3758011,40.3624268,59.4386063,42.7119751,57.7929764,44.824707z   M59.7300491,47.8609009l-0.6378174,1.1278076l-0.9682007-0.9725952c-0.0880127-0.0882568-0.1838989-0.1657104-0.284668-0.2344971  c0.2842407-0.284668,0.5588379-0.5728149,0.8167114-0.8668213C58.9970169,47.2438965,59.3554153,47.557312,59.7300491,47.8609009z   M57.6323318,50.3574829l-0.5609131,0.5629272l-0.6622925-1.1671753l0.2979126-0.3255005L57.6323318,50.3574829z   M55.6061478,52.3908081l-5.135437,5.1536255l-5.0238647-5.0410767l1.1361694-2.0038452  c0.2598267,0.1731567,0.5108643,0.3325806,0.7537231,0.4817505c0.0632935,0.0388794,0.1203613,0.071167,0.182251,0.1083984  c0.1848145,0.1112061,0.3652344,0.2183838,0.536377,0.3154297c0.0797729,0.0452271,0.1517334,0.0841675,0.2282104,0.1264038  c0.1455688,0.0803833,0.2857666,0.1571655,0.4180298,0.2266235c0.0719604,0.0378418,0.1370239,0.0712891,0.2047119,0.105957  c0.1238403,0.0633545,0.2386475,0.1213379,0.3469238,0.1741943c0.0579224,0.0283203,0.111145,0.0544434,0.1643066,0.0797729  c0.1055908,0.050354,0.1970825,0.0930176,0.2823486,0.1317749c0.0383301,0.017395,0.0747681,0.0344238,0.1087036,0.0495605  c0.0841064,0.0374756,0.1490479,0.0657349,0.2049561,0.0894775c0.019043,0.0081177,0.0379639,0.0164795,0.0535889,0.0230713  c0.05896,0.0246582,0.0978394,0.0402832,0.107666,0.0441284c0.1174927,0.0460205,0.2410889,0.0689087,0.3646851,0.0690308  c0.0005493,0,0.0009766,0.0003052,0.0015259,0.0003052c0.1230469,0,0.2451172-0.0224609,0.3613281-0.0678711  c0.0101318-0.0039063,0.0507202-0.0199585,0.1114502-0.0450439c0.0135498-0.0055542,0.0296021-0.0126343,0.0455933-0.0193481  c0.0580444-0.024231,0.1276245-0.0542603,0.2167969-0.0935669c0.0331421-0.0145874,0.0687256-0.0310669,0.105835-0.0477905  c0.086792-0.0390015,0.1798706-0.0821533,0.2874146-0.1329956c0.0541992-0.0256348,0.1084595-0.052002,0.1675415-0.0806274  c0.1080322-0.0523071,0.222168-0.1095581,0.3453979-0.1722412c0.0709229-0.0360718,0.1394043-0.071106,0.2149658-0.1105957  c0.1294556-0.067688,0.2664795-0.142395,0.4084473-0.2203369c0.0811768-0.0445557,0.1578979-0.0859985,0.2427368-0.1339722  c0.1629639-0.0921021,0.3347168-0.1940308,0.5097656-0.2988892c0.072998-0.0437012,0.1408691-0.0821533,0.2156982-0.1281128  c0.2432861-0.149353,0.4946289-0.30896,0.7543335-0.4822998L55.6061478,52.3908081z M44.2937088,50.480957l-0.3126831,0.5515747  l-1.1834717-1.1875l0.4153442-0.4436646L44.2937088,50.480957z M42.9338455,47.4483032  c-0.3986816,0.0658569-0.767334,0.2492676-1.0588379,0.5419312l-0.8967896,0.901001l-0.5766602-1.0184326  c0.5765381-0.4689331,1.1110229-0.9627075,1.600647-1.4788818C42.2955399,46.7548218,42.6081009,47.1051636,42.9338455,47.4483032z   M40.5665359,51.5157471c0.0222778,0.0043945,0.045166,0.0084229,0.0682373,0.0111084  c0.2832031,0.0415039,0.5673828-0.0493164,0.78125-0.2353516l1.9024658,1.9093628  c0.0016479,0.001709,0.0020752,0.0040283,0.0037842,0.0056763c0.0016479,0.0016479,0.0038452,0.0020752,0.0054932,0.0036621  l0.0067749,0.0067749c0.0018311,0.00177,0.0025024,0.0043945,0.0043335,0.0061646l0.0339966,0.0322876l6.388855,6.4120483  c0.1875,0.1884766,0.4433594,0.2944336,0.7089844,0.2944336s0.5214844-0.105957,0.7089844-0.2944336l6.3808594-6.4013672  c0.0021362-0.0021362,0.0029907-0.0049438,0.0050659-0.0070801l1.6365356-1.642334  c0.0849609,0.0097656,0.1728516,0.0087891,0.2578125-0.003418c0.265564-0.0380859,0.5018921-0.1810913,0.6600342-0.3929443  l1.3751221,1.3812256c0.0437622,0.0427856,0.0465698,0.1312866,0.0070801,0.1900024  c-0.0045776,0.0065308-0.0114136,0.0108643-0.0158691,0.0175171L51.1259842,63.2167969l-0.6914063,0.640625l-1.5390625-1.5473633  c-0.0234375-0.0292969-0.0488281-0.0571289-0.0751953-0.0839844l-0.234375-0.2353516  c-0.0234375-0.0288086-0.0478516-0.0566406-0.0742188-0.0830078l-9.0205078-9.0478516  c-0.0039063-0.0078125-0.0478516-0.1303711-0.0527344-0.1381836c-0.0039063-0.0341797,0.0107422-0.078125,0.0361328-0.1035156  L40.5665359,51.5157471z M61.3730545,49.644043c-0.0742188-0.0751953-0.1542969-0.1435547-0.2373047-0.2060547l0.2099609-0.3725586  c0.1280518,0.0839233,0.2494507,0.1585693,0.3724365,0.2353516c0.0529785,0.0331421,0.1077271,0.0690308,0.159668,0.1008301  c0.2032471,0.1243286,0.3988037,0.239563,0.583252,0.3439331c0.0482788,0.0272827,0.0897217,0.0488281,0.1364746,0.0748291  c0.1338501,0.0742188,0.2637939,0.1455078,0.3844604,0.2088623c0.0704346,0.0369873,0.1315918,0.0678101,0.1970825,0.1011353  c0.0880127,0.0447998,0.1723633,0.0877686,0.2507324,0.1260376c0.0630493,0.0308228,0.118042,0.057251,0.1742554,0.0839233  c0.0675049,0.0319824,0.1272583,0.0599976,0.1843872,0.0861206c0.0482788,0.0220337,0.0910645,0.041748,0.1314697,0.0596313  c0.0530396,0.0235596,0.0924683,0.0405884,0.1313477,0.0571899c0.0280151,0.0119019,0.0527954,0.0229492,0.072998,0.031311  c0.0454712,0.0189209,0.0748901,0.0307007,0.0827637,0.0338135c0.1164551,0.0454712,0.2396851,0.0682983,0.3632202,0.0684814  c0.0006714,0,0.0013428,0.0003662,0.0013428,0.0003662c0.1237183,0,0.2457886-0.0224609,0.3619995-0.0678711  c0.0085449-0.0032349,0.0447388-0.0176392,0.0966797-0.0390625c0.0067749-0.0028076,0.0137329-0.0059204,0.0212402-0.0090332  c0.0498657-0.020752,0.1144409-0.048584,0.1946411-0.0838623c0.0246582-0.0108643,0.0492554-0.0221558,0.0765991-0.0344238  c0.0758057-0.0339355,0.159729-0.072876,0.2550659-0.1178589c0.038208-0.0180664,0.0740967-0.0351563,0.1151733-0.0549927  c0.1020508-0.0491943,0.2128906-0.1047974,0.331665-0.1652222c0.0430298-0.0219116,0.0817261-0.0411377,0.126709-0.0645142  c0.1554565-0.0806885,0.3209839-0.1694946,0.4980469-0.2682495c0.0123291-0.0068359,0.0228271-0.012207,0.0352173-0.019165  c0.1931152-0.1082764,0.397522-0.2277832,0.6109619-0.357666c0.0361328-0.0219727,0.0744019-0.0471191,0.1110229-0.0697632  c0.1375732-0.0848999,0.2747803-0.1691895,0.4185791-0.2630615l0.7363281,1.2993164l-3.0126953,3.0292969  c-0.0289917-0.0148926-0.0598145-0.0255127-0.0889282-0.0401611c-0.1958008-0.0985107-0.3969116-0.18396-0.5980225-0.2699585  c-0.1194458-0.0510254-0.2363892-0.1081543-0.3575439-0.1547241c-0.2379761-0.0915527-0.4818115-0.1676636-0.7263184-0.2418823  c-0.0827637-0.0250854-0.1623535-0.0587158-0.2457886-0.0818481c-0.0007935-0.0178833-0.0059204-0.0352173-0.0071411-0.0530396  c-0.0048218-0.0717773-0.0167236-0.1421509-0.0286865-0.2130127c-0.0090942-0.0537109-0.015686-0.1072998-0.0288086-0.1602173  c-0.0183716-0.0740356-0.045105-0.1453857-0.0714111-0.2171631c-0.017334-0.0473022-0.0308838-0.09552-0.0516357-0.1416016  c-0.0352173-0.0783081-0.0801392-0.1520386-0.1251221-0.2260132c-0.0217896-0.0358887-0.0387573-0.0738525-0.0628662-0.1085815  c-0.0738525-0.1063843-0.1572266-0.2075195-0.2522583-0.3007813L61.3730545,49.644043z M72.8007889,35.9614258  c-0.0068359,0.449707-0.0126953,0.9072266-0.0126953,1.371582c0,4.6430664-2.8427734,7.7177734-5.2265625,9.4790039  c-1.2646484,0.9331055-2.4208984,1.5146484-2.9873047,1.7744141c-0.5615234-0.2602539-1.7070313-0.8432617-2.96875-1.7783203  c-0.6191406-0.4501953-1.1943359-0.9379883-1.7158203-1.4560547c0.0459595-0.0656738,0.0845337-0.1337891,0.1293945-0.1998291  c0.1005249-0.1480103,0.1953125-0.2978516,0.2900391-0.4477539c0.1265259-0.2001953,0.2495117-0.4015503,0.3658447-0.6051025  c0.0878296-0.1538086,0.171875-0.3087769,0.2539063-0.4644775c0.1082153-0.2055054,0.2111206-0.4125366,0.3091431-0.6212769  c0.0741577-0.15802,0.1466064-0.3164063,0.2149048-0.4762573c0.0907593-0.2124634,0.1744385-0.427063,0.2548828-0.6427612  c0.0597534-0.1602173,0.1199341-0.3203125,0.1739502-0.4822998c0.0742188-0.2224731,0.1392212-0.4476929,0.2026367-0.6734009  c0.0447998-0.1594849,0.092041-0.3181152,0.1314697-0.479126c0.0580444-0.2374268,0.1047363-0.4781494,0.151001-0.7189941  c0.029541-0.1536255,0.0637207-0.3059082,0.0884399-0.4609375c0.0426025-0.2670898,0.0714722-0.5379639,0.0997925-0.809021  c0.013855-0.1325684,0.0343628-0.2633057,0.0447998-0.3968506c0.0317383-0.4060669,0.0495605-0.815918,0.0495605-1.2304077  c0-0.5244141,0.0078125-1.0410156,0.0146484-1.5498047c0.0103149-0.7033691,0.0131836-1.3780518,0.0042114-2.0390015  c-0.0015259-0.1098022,0.0032959-0.227417,0.0006714-0.3364868h10.0644531  C72.8320389,33.7167969,72.8164139,34.8144531,72.8007889,35.9614258z M63.9296951,17.0488281h1.3203125  c0.9775391,0,1.7724609,0.8012695,1.7724609,1.7856445v0.954834c-0.0002441,0.0085449-0.0048828,0.015564-0.0048828,0.0241699  v2.5058594c0,0.5522461,0.4472656,1,1,1s1-0.4477539,1-1v-1.4903564c3.0429688,0.1361084,5.4785156,2.6637573,5.4785156,5.760376  v1.3706055c0,0.5522461,0.4472656,1,1,1h0.9414063c0.5009766,0,1.1044922,0.7539063,1.3632813,1.7583008h-4.1972656h-5.2128906  c0.0492554-0.0319824,0.0914917-0.0726929,0.1342773-0.1126709c0.0117798-0.0110474,0.0252075-0.019104,0.036499-0.0306396  c0.0778198-0.0799561,0.1384888-0.1740112,0.1862793-0.2763672c0.0111084-0.0237427,0.0196533-0.0471802,0.0288696-0.0719604  c0.0409546-0.1092529,0.0701294-0.2242432,0.0701294-0.3477173c0-2.6694336-1.6083984-5.5273438-4.0019531-5.5273438h-0.1347656  v-0.6538086c0-0.2926636-0.0155029-0.5827637-0.0422363-0.8704224c-0.0089111-0.0964355-0.0258789-0.1908569-0.0378418-0.2866821  c-0.0236816-0.1901855-0.0482788-0.3800049-0.0834961-0.5671997c-0.0209961-0.1118774-0.0488892-0.2213745-0.0740356-0.3320313  c-0.038147-0.1680908-0.0774536-0.3356323-0.1248169-0.5007324c-0.0330811-0.1153564-0.071228-0.2285767-0.1088257-0.3423462  c-0.0516968-0.1564941-0.105835-0.3117065-0.1658936-0.4649658c-0.0447998-0.1142578-0.0926514-0.2269287-0.1420288-0.3392944  c-0.0654907-0.1489258-0.1348877-0.2956543-0.208374-0.440918c-0.0552979-0.109436-0.1115723-0.2180786-0.1713867-0.3253174  c-0.0803223-0.144104-0.1663818-0.2849121-0.2546997-0.4248047c-0.064209-0.1016846-0.1274414-0.2036133-0.1958008-0.3029785  c-0.0984497-0.1431274-0.2044067-0.2814331-0.3114624-0.4193726c-0.0689087-0.0887451-0.1347046-0.1791992-0.2070923-0.265686  c-0.0194092-0.0231934-0.0359497-0.0482788-0.055603-0.0713501C62.8554764,17.3144531,63.3711014,17.0488281,63.9296951,17.0488281z   M38.4082108,25.3515625v-1.6538086c0-0.4728394,0.0599976-0.9344482,0.1482544-1.3887939  c0.0554199-0.2852173,0.1127319-0.5700684,0.2019653-0.8450928c0.2312012-0.7127075,0.574646-1.3870239,1.0238037-2.0029297  c1.3205566-1.8012085,3.4229736-2.8825684,5.6396484-2.9180908v2.0084229c0,0.5522461,0.4472656,1,1,1s1-0.4477539,1-1v-3.0151367  v-1.1850586C47.4218826,13.0546875,48.4697342,12,49.7578201,12h1.59375c1.2929688,0,2.3447266,1.0546875,2.3447266,2.3510742  v1.1850586v3.0151367c0,0.5522461,0.4472656,1,1,1s1-0.4477539,1-1v-2.0097046  c1.8564453,0.0284424,3.5977173,0.7587891,4.9121094,2.0722046c1.3554688,1.3530273,2.1015625,3.1586914,2.1015625,5.0839844  v1.6538086c0,0.5522461,0.4472656,1,1,1h1.1347656c0.7373047,0,1.6083984,1.090332,1.9003906,2.5273438h-5.3242188H39.7412186  h-5.3554688c0.3261719-1.4272461,1.2705078-2.5273438,1.8867188-2.5273438h1.1357422  C37.9609451,26.3515625,38.4082108,25.9038086,38.4082108,25.3515625z M22.3369217,30.7182617  c0.2910156-1.0234375,0.9619141-1.7583008,1.3486328-1.7583008h0.9414063c0.5527344,0,1-0.4477539,1-1v-1.3706055  c0-3.095459,2.4373779-5.6222534,5.4833984-5.7601929v1.4901733c0,0.5522461,0.4472656,1,1,1s1-0.4477539,1-1v-2.5058594  c0-0.001709-0.0009766-0.0031128-0.0009766-0.0048218v-0.9741821c0-0.984375,0.7949219-1.7856445,1.7724609-1.7856445h1.3203125  c0.8847656,0,1.6201172,0.6557617,1.7519531,1.5366211c-0.0196533,0.0293579-0.0325928,0.0618286-0.0518799,0.0913696  c-0.2136841,0.3270264-0.4058228,0.6644287-0.574585,1.0122681c-0.0283813,0.0586548-0.0546875,0.1177368-0.0817871,0.1768799  c-0.1638794,0.3570557-0.3068848,0.7223511-0.4229736,1.0970459c-0.0159912,0.0514526-0.0287476,0.1035767-0.0437622,0.1553345  c-0.112854,0.3884888-0.2043457,0.7835693-0.2650146,1.1864624c-0.005127,0.0340576-0.0072632,0.0686035-0.0120239,0.1027832  c-0.059082,0.4244385-0.0938721,0.8544922-0.0938721,1.2901611v0.6538086h-0.1357422  c-2.2529297,0-4.0009766,2.9711914-4.0009766,5.5273438c0,0.1235962,0.0292358,0.2386475,0.0702515,0.3479614  c0.0091553,0.0245972,0.0176392,0.0479126,0.0286865,0.0715332c0.0477905,0.102417,0.1084595,0.1965942,0.1863403,0.2766113  c0.0112915,0.0115356,0.0246582,0.0195313,0.036438,0.0305786c0.0427856,0.039978,0.085083,0.0806885,0.1343384,0.1126709  h-6.1640625H22.3369217z M27.3173904,37.3330078l-0.0029297-0.8725586  c-0.0058594-1.3261719-0.0107422-2.5932617,0.1152344-3.7421875h11.0283203  c-0.0067749,0.1962891-0.0067139,0.3984985-0.010437,0.5970459c-0.0032959,0.1757202-0.0079346,0.3547974-0.0093384,0.5325317  c-0.0044556,0.5485229-0.0042114,1.104126-0.0007324,1.6760864l0.0039063,1.1196289  c0,0.3814697,0.0152588,0.7591553,0.0423584,1.1338501c0.0090332,0.1247559,0.0267944,0.2471924,0.0388184,0.3711548  c0.0241699,0.2485962,0.0485229,0.4970703,0.0847168,0.7424927c0.0214844,0.145874,0.0512085,0.2894897,0.0769653,0.4342041  c0.0391846,0.2203369,0.0784302,0.4406128,0.1274414,0.6582031c0.0343628,0.152771,0.0757446,0.3035278,0.1149902,0.4549561  c0.0532837,0.2058105,0.107666,0.4111938,0.1699219,0.6144409c0.0474854,0.1550903,0.1004639,0.3085327,0.1530762,0.4620972  c0.0671997,0.1960449,0.1368408,0.3912354,0.2124634,0.5847778c0.0602417,0.1541138,0.1242065,0.3070679,0.1898193,0.4595947  c0.081604,0.1898193,0.1670532,0.378418,0.256897,0.5656128c0.0723267,0.1506348,0.1466064,0.3005371,0.2242432,0.4495239  c0.0968628,0.1859131,0.1990967,0.3700562,0.3042603,0.5533447c0.083374,0.1452637,0.1669922,0.2903442,0.2555542,0.4338379  c0.0386963,0.0628052,0.0720215,0.1273804,0.1117554,0.1898193c-0.6611328,0.7348633-1.4287109,1.4257813-2.2910156,2.0605469  c-1.2646484,0.9326172-2.4208984,1.5146484-2.9873047,1.7744141c-0.2806396-0.1300659-0.7070313-0.3406372-1.2205811-0.6351929  c-0.5131226-0.2943726-1.1130371-0.6725464-1.741333-1.1382446c0,0-0.0007935-0.0002441-0.0010986-0.0004883  c-0.0009766-0.0007324-0.0018311-0.0012207-0.0028076-0.0019531C30.1689529,45.0537109,27.3173904,41.9833984,27.3173904,37.3330078  z M39.287117,49.9643555l-1.2324219,1.2451172c-0.1485596,0.149353-0.2623291,0.3239136-0.359314,0.5067139  c-0.0239258,0.0454102-0.0442505,0.0900879-0.0648804,0.1370239c-0.0783691,0.1766968-0.1364746,0.3590088-0.1645508,0.5474243  c-0.001709,0.0114136-0.0083618,0.0215454-0.0098877,0.032959l-0.2119141,0.215332  c-0.0647583,0.0193481-0.1252441,0.0492554-0.1895752,0.0698242c-0.3024292,0.0965576-0.5994873,0.2059937-0.8914185,0.3284302  c-0.09552,0.0401001-0.1917725,0.0775757-0.2861328,0.1203613c-0.3613892,0.1638794-0.715332,0.3441162-1.0580444,0.5477295  c-0.0128784,0.0076294-0.0268555,0.0128784-0.0396729,0.0205688l-3.2685547-3.2753906l0.7880859-1.3950195  c0.1132202,0.0742798,0.2200928,0.1395264,0.3294067,0.2081909c0.0703125,0.0441895,0.1425781,0.0915527,0.2110596,0.1334229  c0.1988525,0.121521,0.3901367,0.2342529,0.5709839,0.3366699c0.0556641,0.0314941,0.1037598,0.0566406,0.1574707,0.0863647  c0.1276855,0.0706787,0.2521973,0.1390381,0.3677368,0.199707c0.0685425,0.0360107,0.1280518,0.065979,0.1918945,0.0985107  c0.0909424,0.0463867,0.1777344,0.0905151,0.2583618,0.1298828c0.0597534,0.0291748,0.1118774,0.0542603,0.1655273,0.0797119  c0.0718994,0.0341187,0.135498,0.0639648,0.1957397,0.0914307c0.0443115,0.0201416,0.0836182,0.0383911,0.1211548,0.0549927  c0.0571289,0.0253906,0.1003418,0.0441895,0.1411743,0.0615234c0.0252075,0.0106812,0.0473633,0.0205078,0.065979,0.0282593  c0.0459595,0.019104,0.0759277,0.031189,0.0838623,0.0343018c0.1168213,0.0454712,0.2401733,0.0683594,0.3635864,0.0685425  l0.0016479,0.0003052c0.1230469,0,0.2451172-0.0224609,0.3613281-0.0678711  c0.0085449-0.0032349,0.0447388-0.0176392,0.0966797-0.0390625c0.0067749-0.0028076,0.0137329-0.0059204,0.0212402-0.0090332  c0.0498657-0.020752,0.1144409-0.048584,0.1946411-0.0838623c0.0247192-0.0108643,0.0494995-0.0222778,0.0769043-0.0345459  c0.0752563-0.0337524,0.1584473-0.0723877,0.2529297-0.1169434c0.0393677-0.0186157,0.0764771-0.0363159,0.1189575-0.0567627  c0.0988159-0.0476074,0.2059326-0.1012573,0.3203125-0.1594238c0.0473633-0.0240479,0.0903931-0.0455322,0.1401978-0.0714111  c0.1449585-0.0753174,0.2997437-0.1586304,0.4634399-0.2495728c0.024231-0.0134277,0.045105-0.0241089,0.0697021-0.0379028  c0.18927-0.1061401,0.3893433-0.2230225,0.5980835-0.3499146c0.0513306-0.031189,0.1055908-0.0667725,0.1578979-0.0992432  c0.1256104-0.0779419,0.2498779-0.1538696,0.3806152-0.2391968L39.287117,49.9643555z M30.8224564,57.8606567  c-0.2191162,0.4004517-0.4051514,0.8148804-0.5708618,1.2366333c-0.0241089,0.0614014-0.050293,0.1216431-0.0732422,0.1834106  c-0.1512451,0.4066772-0.2754517,0.8221436-0.3765869,1.2443848c-0.0181885,0.0756836-0.0350342,0.1512451-0.0515137,0.227356  c-0.0922852,0.4256592-0.1622925,0.8566895-0.203186,1.2938232c-0.0057983,0.0623169-0.0077515,0.125-0.0125732,0.1875  c-0.0352173,0.4605103-0.0494385,0.9248657-0.0266724,1.3936768l0.8027344,16.1401367h-9.40625l-1-20.1484375  c-0.1728516-3.4448242,2.1064453-6.503418,5.3740234-7.3310547l2.7731323,2.7814331l2.7746582,2.7832031  C30.8247147,57.8552856,30.8238602,57.8580933,30.8224564,57.8606567z M26.5009842,50.6821289  c-0.0025635-0.0043335-0.0067139-0.0072021-0.0093384-0.0114746l1.1694946-1.2414551l1.8914185,1.8914185  c0,0,0.0006714,0.0011597,0.0011597,0.0016479l3.5997314,3.6157837c-0.4264526,0.3792114-0.8198853,0.7910767-1.1814575,1.2316284  L26.5009842,50.6821289z M69.4531326,63.5268555v0.0009766L68.599617,80.7177734  c-0.0001831,0.0037842,0.0018311,0.0072021,0.001709,0.0109863L68.2412186,88h-35.515625l-1.2106323-24.2888184  l-0.0090942-0.1826782c-0.0007324-0.0151367,0.0019531-0.0298462,0.0012817-0.0449829  c-0.0818481-1.8755493,0.4042969-3.6869507,1.4147339-5.241333c0.6123047-0.9433594,1.3876953-1.7543945,2.3017578-2.4091797  c0.8378906-0.5952148,1.7607422-1.0366211,2.7451172-1.3115234c0.015625-0.0029297,0.0302734-0.0063477,0.0449219-0.0102539  c0.0820313-0.0205078,0.1630859-0.0405273,0.2451172-0.059082l8.7866821,8.8173828  c0.0299683,0.0355835,0.0576172,0.0700684,0.0922241,0.1011353l0.1923828,0.1928101  c0.0224609,0.0288086,0.046875,0.0566406,0.0732422,0.0825195l1.6494141,1.6572266  c0.2861328,0.2709961,0.6455078,0.4658203,1.0117188,0.5493164c0.046875,0.0107422,0.0966797,0.0175781,0.1474609,0.0214844  c0.0693359,0.0068359,0.1386719,0.0102539,0.2070313,0.0102539c0.0535889,0,0.1054077-0.0117188,0.1585083-0.0157471  c0.0600586-0.0045166,0.1191406-0.0082397,0.1781006-0.0176392c0.0903931-0.0144653,0.1771851-0.0377808,0.2642822-0.0634766  c0.0557251-0.0164185,0.1115723-0.029541,0.1654663-0.050293c0.0906982-0.0350342,0.1751099-0.0806274,0.2594604-0.1276245  c0.0431519-0.0240479,0.0888062-0.0427856,0.1299438-0.0698242c0.121582-0.079834,0.2352295-0.1704712,0.3354492-0.2750244  l7.7128906-7.7480469c0.0095215-0.0053711,0.0166626-0.0142822,0.026001-0.0199585  c0.0460205-0.0280762,0.0866699-0.0627441,0.1279907-0.0980225c0.0287476-0.0245361,0.0588989-0.0460205,0.085022-0.0736694  c0.0389404-0.0410767,0.0707397-0.0881348,0.1033936-0.1352539c0.017334-0.0250244,0.0396118-0.0455322,0.0550537-0.0720215  l2.6498413-2.6625366c0.0322876,0.0076294,0.0651245,0.0136108,0.0973511,0.0216064  c0.3865356,0.0959473,0.7644043,0.2172241,1.1323242,0.3648682c0.0670776,0.0269165,0.1326294,0.0575562,0.1990967,0.0861816  c0.3794556,0.1635132,0.7515869,0.3460693,1.1079102,0.5648804c0.9804688,0.5947266,1.8085938,1.3432617,2.4697266,2.2363281  c0.3129883,0.4105225,0.5871582,0.8471069,0.8206787,1.303833c0.5838623,1.1417847,0.9137573,2.4095459,0.9612427,3.7108765  C69.4681473,63.0036621,69.4664383,63.2649536,69.4531326,63.5268555z M80.0957108,59.6191406c0,0.0004883,0,0.0004883,0,0.0004883  l-1,20.1479492h-8.4437256l0.7843628-15.840332l0.0148315-0.2988281c0.0154419-0.3043213,0.0159912-0.6077271,0.0062256-0.9100342  c-0.0031738-0.098999-0.0134888-0.1968994-0.0192871-0.2955322c-0.0119629-0.2020264-0.0255737-0.4036865-0.048645-0.6040039  c-0.0136719-0.1188354-0.0332642-0.236145-0.0507813-0.354187c-0.0264282-0.1777344-0.0545044-0.3546753-0.0895386-0.5304565  c-0.0252686-0.12677-0.0545044-0.2522583-0.0842285-0.3778687c-0.0387573-0.1636963-0.0803833-0.3261108-0.1265869-0.4875488  c-0.0371704-0.1300659-0.076355-0.2590332-0.1182861-0.3874512c-0.0502319-0.1536865-0.1051025-0.3053589-0.1621094-0.456604  c-0.0487061-0.1292725-0.0973511-0.2582397-0.151001-0.385498c-0.0623169-0.147644-0.1308594-0.2922363-0.199707-0.4369507  c-0.059082-0.1243286-0.1160889-0.2494507-0.1799927-0.37146c-0.0805054-0.1536865-0.1694336-0.3028564-0.2574463-0.4526367  c-0.0618286-0.1051636-0.1190796-0.2125244-0.1845703-0.3155518c-0.0054932-0.008606-0.0099487-0.0177612-0.0154419-0.0263672  l2.4492798-2.4606934c0.1353149-0.0826416,0.2477417-0.1998901,0.3361206-0.3376465l0.6907349-0.6939697l1.4533081-1.4597778  C77.9794998,53.105957,80.2695389,56.168457,80.0957108,59.6191406z"/></svg>