<svg xmlns="http://www.w3.org/2000/svg" data-name="Bahan copy" viewBox="0 0 64 80" x="0px" y="0px"><path d="M7.16309,55.07275h7.335a.99974.99974,0,0,0,1-1V38.81641a3.00328,3.00328,0,0,0-3-3h-3.335a3.00328,3.00328,0,0,0-3,3V54.07275A.99973.99973,0,0,0,7.16309,55.07275Zm1-16.25634a1.001,1.001,0,0,1,1-1h3.335a1.001,1.001,0,0,1,1,1V53.07275h-5.335Z"/><path d="M23.27539,28.04639a3.00328,3.00328,0,0,0-3,3V54.07275a.99974.99974,0,0,0,1,1h7.33594a.99974.99974,0,0,0,1-1V31.04639a3.00328,3.00328,0,0,0-3-3Zm4.33594,3V53.07275H22.27539V31.04639a1.001,1.001,0,0,1,1-1h3.33594A1.001,1.001,0,0,1,27.61133,31.04639Z"/><path d="M35.38867,55.07275h7.33594a.99974.99974,0,0,0,1-1V21.12061a3.00328,3.00328,0,0,0-3-3H37.38867a3.00328,3.00328,0,0,0-3,3V54.07275A.99974.99974,0,0,0,35.38867,55.07275Zm1-33.95214a1.001,1.001,0,0,1,1-1h3.33594a1.001,1.001,0,0,1,1,1V53.07275H36.38867Z"/><path d="M49.502,55.07275h7.335a.99973.99973,0,0,0,1-1V13.73389a3.00328,3.00328,0,0,0-3-3H51.502a3.00328,3.00328,0,0,0-3,3V54.07275A.99974.99974,0,0,0,49.502,55.07275Zm1-41.33886a1.001,1.001,0,0,1,1-1h3.335a1.001,1.001,0,0,1,1,1V53.07275H50.502Z"/><path d="M60,57.49463H4a1.00012,1.00012,0,0,0,.00006,2l55.99994,0A1.00013,1.00013,0,0,0,60,57.49463Z"/><path d="M24.8457,22.40771c5.18882.17575,8.76569-6.02057,6.01936-10.42636L27.40039,5.97949a2.967,2.967,0,0,0-5.10937.00058l-3.46485,6.00138C16.07863,16.38515,19.657,22.58531,24.8457,22.40771Zm-4.28711-9.42626L24.02344,6.98a.9491.9491,0,0,1,1.64453,0l3.46484,6.00147a4.90054,4.90054,0,0,1,0,4.95117C25.703,23.51,17.44118,18.741,20.55859,12.98145Z"/></svg>