<svg xmlns="http://www.w3.org/2000/svg" data-name="Layer 1" viewBox="0 0 110 137.5" x="0px" y="0px"><path d="M55,73.13a3.92,3.92,0,1,0,3.92,3.92A3.92,3.92,0,0,0,55,73.13ZM55,79a1.92,1.92,0,1,1,1.92-1.92A1.92,1.92,0,0,1,55,79ZM81.49,6h-53a1,1,0,0,0-1,1V9.41H16.38a9,9,0,0,0-9,9V76.89a9,9,0,0,0,9,9h27V96.21h-2.9A6.79,6.79,0,0,0,33.67,103a1,1,0,0,0,1,1H75.33a1,1,0,0,0,1-1,6.78,6.78,0,0,0-6.76-6.79h-2.9V85.93h27a9,9,0,0,0,9-9V18.61a9.21,9.21,0,0,0-9.19-9.2h-11V7A1,1,0,0,0,81.49,6Zm-54,62.25H17.26V19.35H27.51Zm55-48.9H92.76v48.9H82.49ZM29.51,8h51V68.25h-51V8ZM73,99.62A4.71,4.71,0,0,1,74.23,102H35.77a4.79,4.79,0,0,1,4.67-3.79H69.57A4.72,4.72,0,0,1,73,99.62Zm-8.28-3.41H45.34V85.93H64.67Zm28.8-84.8a7.21,7.21,0,0,1,7.19,7.2V76.89a7,7,0,0,1-7,7H65.75l-.08,0H44.34l-.09,0H16.38a7,7,0,0,1-7-7V18.44a7,7,0,0,1,7-7H27.51v5.94H16.26a1,1,0,0,0-1,1v50.9a1,1,0,0,0,1,1h77.5a1,1,0,0,0,1-1V18.35a1,1,0,0,0-1-1H82.49V11.41ZM34,57.44a1,1,0,0,1,1-1H75.42a1,1,0,1,1,0,2H35A1,1,0,0,1,34,57.44ZM34,63a1,1,0,0,1,1-1H75.42a1,1,0,0,1,0,2H35A1,1,0,0,1,34,63ZM47.33,36.83A6.82,6.82,0,1,0,53.61,41l6.71-4.12a6.75,6.75,0,0,0,5.24,2.46A6.83,6.83,0,1,0,60.47,28l-6.7-4.38a6.72,6.72,0,0,0,.39-2.24,6.87,6.87,0,1,0-1.33,4l6.54,4.28a6.72,6.72,0,0,0-.63,2.87,7,7,0,0,0,.54,2.66l-6.72,4.12A6.81,6.81,0,0,0,47.33,36.83Zm0-10.68a4.82,4.82,0,1,1,4.83-4.82A4.83,4.83,0,0,1,47.33,26.15Zm18.23,1.51a4.83,4.83,0,0,1,0,9.65A4.79,4.79,0,0,1,61.44,35a4.86,4.86,0,0,1,.09-5.17A4.8,4.8,0,0,1,65.56,27.66ZM47.33,48.46a4.82,4.82,0,1,1,4.83-4.82A4.82,4.82,0,0,1,47.33,48.46Z"/></svg>