<svg xmlns="http://www.w3.org/2000/svg" version="1.1" viewBox="-5.0 -10.0 110.0 135.0">
 <path d="m95.875 48.52-9.8867-9.8867c-0.83984-0.83984-2.043-1.0898-3.1016-0.76172l-1.082-1.082c-0.52734-0.52734-0.62891-1.3164-0.24609-1.9609 1.6836-2.8281 2.5703-6.0703 2.5703-9.3789 0-10.133-8.2422-18.375-18.375-18.375-10.133 0-18.375 8.2422-18.375 18.375 0 5.5078 2.4336 10.453 6.2852 13.824l-8.0117 9.2422-11.441-7.7734c-0.55078-0.375-1.2969-0.27734-1.7305 0.22656l-27.18 31.355-0.003906-61.508c0-0.72656-0.58984-1.3164-1.3164-1.3164-0.72656 0-1.3164 0.58984-1.3164 1.3164v80.793c0 0.72656 0.58984 1.3164 1.3164 1.3164h80.793c0.72656 0 1.3164-0.58984 1.3164-1.3164s-0.58984-1.3164-1.3164-1.3164l-79.477 0.003906v-13.953l28.402-32.766 11.441 7.7773c0.55078 0.375 1.2969 0.27734 1.7305-0.22656l8.8906-10.258c2.8789 1.8711 6.3086 2.9609 9.9883 2.9609 3.3086 0 6.5508-0.89062 9.3789-2.5703 0.64453-0.38281 1.4297-0.28516 1.9609 0.24609l1.0781 1.0781c-0.09375 0.29687-0.14062 0.60547-0.14062 0.92187 0 0.82422 0.32031 1.6016 0.90234 2.1797l9.8867 9.8867c0.97266 0.97266 2.2461 1.457 3.5234 1.457s2.5547-0.48438 3.5234-1.457c1.9414-1.9414 1.9414-5.1055 0-7.0508zm-22.082-9.5273c-2.4219 1.4414-5.1992 2.2031-8.0352 2.2031-3.0234 0-5.8477-0.85937-8.2461-2.3398l1.5742-1.8164c1.9648 1.1367 4.2422 1.7891 6.6719 1.7891 7.375 0 13.379-6 13.379-13.379 0-7.3789-6-13.379-13.379-13.379-7.3789 0-13.379 6-13.379 13.379 0 4 1.7695 7.5938 4.5586 10.047l-1.5508 1.7852c-3.293-2.8867-5.3789-7.1211-5.3789-11.836 0-8.6836 7.0625-15.746 15.746-15.746s15.746 7.0625 15.746 15.746c0 2.8359-0.76172 5.6133-2.2031 8.0352-1.0078 1.6953-0.75 3.7695 0.64453 5.1641l0.83203 0.83203-0.98828 0.98828-0.83203-0.83203c-1.3945-1.3945-3.4688-1.6523-5.1641-0.64453zm-6.3359-7.7461c0.039063 0.003906 0.074219 0.003906 0.11328 0.003906 0.67578 0 1.25-0.51953 1.3086-1.2031l0.44141-5.2031c0.035157-0.42578-0.13672-0.84375-0.46484-1.1172-0.32812-0.27344-0.76953-0.37109-1.1836-0.26172l-5.125 1.3711c-0.69922 0.1875-1.1172 0.91016-0.92969 1.6094 0.1875 0.69922 0.91016 1.1172 1.6094 0.92969l0.98047-0.26172-5.5469 6.4023c-2.2383-1.9727-3.6523-4.8555-3.6523-8.0625 0-5.9258 4.8203-10.746 10.746-10.746 5.9258 0 10.746 4.8203 10.746 10.746s-4.8203 10.746-10.746 10.746c-1.7695 0-3.4375-0.43359-4.9102-1.1914l5.5117-6.3594-0.10156 1.1797c-0.0625 0.72266 0.47656 1.3594 1.1992 1.4219zm26.559 22.465c-0.91797 0.91797-2.4102 0.91797-3.3281 0l-9.8867-9.8867c-0.11328-0.11328-0.13281-0.25-0.13281-0.32031 0-0.070312 0.015625-0.20703 0.13281-0.32031l2.6875-2.6875c0.085938-0.085938 0.20312-0.13281 0.32031-0.13281 0.11719 0 0.23438 0.042969 0.32031 0.13281l9.8867 9.8867c0.91797 0.91797 0.91797 2.4102 0 3.3281zm-79.16 18.766c-0.72656 0-1.3164 0.58984-1.3164 1.3164v12.277c0 0.72656 0.58984 1.3164 1.3164 1.3164h10.062c0.72656 0 1.3164-0.58984 1.3164-1.3164v-12.277c0-0.72656-0.58984-1.3164-1.3164-1.3164zm8.7461 12.277h-7.4297v-9.6484h7.4297zm-11.508-61.637h8.2422c0.72656 0 1.3164-0.58984 1.3164-1.3164v-8.2422c0-0.72656-0.58984-1.3164-1.3164-1.3164h-8.2422c-0.72656 0-1.3164 0.58984-1.3164 1.3164v8.2422c0 0.72656 0.58984 1.3164 1.3164 1.3164zm1.3164-8.2422h5.6133v5.6133h-5.6133zm-1.3164 21.602h8.2422c0.72656 0 1.3164-0.58984 1.3164-1.3164v-8.2422c0-0.72656-0.58984-1.3164-1.3164-1.3164h-8.2422c-0.72656 0-1.3164 0.58984-1.3164 1.3164v8.2422c0 0.72656 0.58984 1.3164 1.3164 1.3164zm1.3164-8.2422h5.6133v5.6133h-5.6133zm11.879-7.8789c0-0.72656 0.58984-1.3164 1.3164-1.3164h15.004c0.72656 0 1.3164 0.58984 1.3164 1.3164 0 0.72656-0.58984 1.3164-1.3164 1.3164h-15.004c-0.72656 0-1.3164-0.58984-1.3164-1.3164zm0-5.3398c0-0.72656 0.58984-1.3164 1.3164-1.3164h15.004c0.72656 0 1.3164 0.58984 1.3164 1.3164s-0.58984 1.3164-1.3164 1.3164h-15.004c-0.72656 0-1.3164-0.58984-1.3164-1.3164zm0 13.355c0-0.72656 0.58984-1.3164 1.3164-1.3164h15.004c0.72656 0 1.3164 0.58984 1.3164 1.3164 0 0.72656-0.58984 1.3164-1.3164 1.3164h-15.004c-0.72656 0-1.3164-0.58984-1.3164-1.3164zm0 5.3398c0-0.72656 0.58984-1.3164 1.3164-1.3164h15.004c0.72656 0 1.3164 0.58984 1.3164 1.3164 0 0.72656-0.58984 1.3164-1.3164 1.3164h-15.004c-0.72656 0-1.3164-0.58984-1.3164-1.3164zm5.6367 20.355c-0.72656 0-1.3164 0.58984-1.3164 1.3164v30.691c0 0.72656 0.58984 1.3164 1.3164 1.3164h10.062c0.72656 0 1.3164-0.58984 1.3164-1.3164v-30.691c0-0.72656-0.58984-1.3164-1.3164-1.3164zm8.7461 30.691h-7.4297v-28.062h7.4297zm7.3242-24.305c-0.72656 0-1.3164 0.58984-1.3164 1.3164v24.305c0 0.72656 0.58984 1.3164 1.3164 1.3164h10.062c0.72656 0 1.3164-0.58984 1.3164-1.3164v-24.305c0-0.72656-0.58984-1.3164-1.3164-1.3164zm8.7461 24.305h-7.4297v-21.676h7.4297zm7.3242-37.734c-0.72656 0-1.3164 0.58984-1.3164 1.3164v37.734c0 0.72656 0.58984 1.3164 1.3164 1.3164h10.062c0.72656 0 1.3164-0.58984 1.3164-1.3164v-37.734c0-0.72656-0.58984-1.3164-1.3164-1.3164zm8.7461 37.734h-7.4297v-35.105h7.4297z"/></svg>