<svg xmlns="http://www.w3.org/2000/svg" width="48" height="48" xmlns:xlink="http://www.w3.org/1999/xlink" xml:space="preserve" style="shape-rendering:geometricPrecision;text-rendering:geometricPrecision;image-rendering:optimizeQuality;" viewBox="0 0 6.82666 8.533325000000001" x="0px" y="0px" fill-rule="evenodd" clip-rule="evenodd"><defs></defs><g><g><path class="fil0" d="M3.89807 5.01883c-0.268205,0 -0.486402,0.218154 -0.486402,0.486291 7.87402e-006,0.26813 0.218193,0.48622 0.48639,0.48622l2.37959 -1.1811e-005c-0.188327,-0.32311 -0.188339,-0.649307 -3.93701e-006,-0.972488l-2.37957 -1.1811e-005zm2.50207 1.10598l-2.50207 0c-0.341673,0 -0.619736,-0.278028 -0.619736,-0.619681 0,-0.341677 0.278055,-0.619626 0.619724,-0.619626l2.50209 -7.87402e-006c0.025,0 0.0477717,0.0139409 0.0592992,0.0361063 0.0113898,0.0221614 0.00944488,0.048878 -0.005,0.0692087 -0.246094,0.346079 -0.24611,0.682543 0,1.02859 0.0144528,0.0204134 0.0163898,0.0470827 0.005,0.0693031 -0.0115157,0.0220787 -0.0343031,0.0361102 -0.0592992,0.0361102z"/><path class="fil0" d="M6.2475 5.83324l-2.34944 0c-0.180972,0 -0.328209,-0.147169 -0.328209,-0.328102 3.93701e-006,-0.180929 0.147224,-0.32815 0.328197,-0.32815l2.34945 -1.1811e-005c0.036811,0 0.0665236,0.0298701 0.0665236,0.0666929 7.87402e-006,0.0368071 -0.0297244,0.0666654 -0.0665276,0.0666654l-2.34943 0c-0.105705,0 -0.194874,0.0892087 -0.194874,0.194803 1.1811e-005,0.105571 0.0891654,0.194795 0.194862,0.194795l2.34945 -3.93701e-006c0.036811,0 0.0665236,0.0298465 0.0665236,0.0666693 7.87402e-006,0.0367992 -0.0297244,0.0666496 -0.0665236,0.0666417z"/><path class="fil0" d="M2.06167 3.85404c-0.036811,0 -0.0666772,-0.0298386 -0.0666772,-0.0666614l7.87402e-006 -0.448213c0,-0.0368268 0.0298543,-0.0666614 0.0666614,-0.0666614 0.0368071,-1.1811e-005 0.0666654,0.0298465 0.0666654,0.0666693l1.5748e-005 0.448197c0,0.0368268 -0.029874,0.0666772 -0.0666732,0.0666693zm1.14472 0c-0.036811,0 -0.0666732,-0.0298386 -0.0666732,-0.0666614l0 -0.448213c0,-0.0368268 0.0298622,-0.0666614 0.0666654,-0.0666614 0.0369449,-1.1811e-005 0.0666693,0.0298465 0.0666693,0.0666693l1.1811e-005 0.448197c0,0.0368268 -0.0297362,0.0666772 -0.0666732,0.0666693z"/><path class="fil0" d="M1.77514 1.91105l0 0.702047c0,0.47361 0.385272,0.858917 0.858886,0.858917 0.473614,-1.1811e-005 0.858886,-0.385307 0.858886,-0.858906l1.1811e-005 -0.70537c-0.163063,-0.116031 -0.54376,-0.345543 -0.726957,-0.278059 -0.224295,0.0826535 -0.443331,-0.00943307 -0.545,-0.0650984 -0.104717,0.12722 -0.345413,0.283972 -0.445827,0.346469zm0.858894 1.69428c-0.547079,0 -0.992232,-0.445098 -0.992232,-0.992224l1.1811e-005 -0.739323c0,-0.023311 0.0122126,-0.0449134 0.0320709,-0.0570079 0.173071,-0.104961 0.431945,-0.288598 0.465417,-0.368252 0.00791732,-0.0186614 0.023752,-0.0327205 0.0431929,-0.038248 0.0194606,-0.00557087 0.0404173,-0.00196063 0.0569449,0.00976378 0.00223228,0.00164961 0.246531,0.170681 0.480417,0.0845276 0.296394,-0.109252 0.820835,0.271941 0.879583,0.315764 0.0169528,0.0125787 0.0268071,0.0324016 0.0268071,0.0534567l3.93701e-006 0.739307c0,0.547126 -0.445004,0.992248 -0.992217,0.992236z"/><path class="fil0" d="M4.83347 5.01883c-0.0330472,0 -0.0616693,-0.0245433 -0.0659764,-0.0581969 -0.0569291,-0.443976 -0.4425,-0.782232 -0.98222,-0.861748l-0.127071 -0.0187283c-0.0363898,-0.00535827 -0.0616772,-0.0392283 -0.0562638,-0.0756614 0.00542126,-0.0364331 0.0391654,-0.0615827 0.0756969,-0.056252l0.127083 0.0187126c0.280283,0.041311 0.531248,0.150012 0.725693,0.314358 0.208622,0.176311 0.33639,0.405362 0.369307,0.66239 0.00473622,0.0365 -0.0211142,0.0699173 -0.0576378,0.0745984 -0.00290945,0.000354331 -0.00569685,0.00053937 -0.00861024,0.000527559zm-0.935406 1.10598l-3.47153 0c-0.036815,0 -0.0666772,-0.0298583 -0.0666772,-0.0668071l3.93701e-006 -0.978461c0,-0.291154 0.114303,-0.552661 0.330693,-0.756244 0.197087,-0.185394 0.471528,-0.311933 0.772917,-0.356335l0.127094 -0.0187323c0.0365157,-0.00527953 0.0702638,0.0198425 0.0756811,0.0562598 0.0052874,0.0364291 -0.0198622,0.0703071 -0.056252,0.0756693l-0.127071 0.0187126c-0.492642,0.0725787 -0.989732,0.403965 -0.989732,0.980673l1.1811e-005 0.91178 3.40486 0c0.0367953,0 0.0666535,0.029874 0.0666535,0.0666772 0,0.0369488 -0.0298622,0.0668071 -0.0666535,0.0668071z"/><path class="fil0" d="M3.8532 2.30085c-0.036811,0 -0.0666772,-0.0298386 -0.0666772,-0.0666535l7.87402e-006 -0.24652c0,-0.635484 -0.516953,-1.1525 -1.15251,-1.1525 -0.635417,-3.93701e-006 -1.1525,0.517016 -1.1525,1.1525l7.87402e-006 0.246512c0,0.036811 -0.0298701,0.0666693 -0.0666772,0.0666693 -0.0367913,-1.1811e-005 -0.0666654,-0.0298504 -0.0666654,-0.0666654l1.1811e-005 -0.24652c0,-0.709016 0.576795,-1.28583 1.28582,-1.28583 0.709039,-1.1811e-005 1.28583,0.576823 1.28583,1.28583l3.93701e-006 0.246512c0,0.036811 -0.0297244,0.0666693 -0.0666575,0.0666575z"/><path class="fil0" d="M1.71861 2.81593l-0.152075 0c-0.15861,0 -0.287508,-0.128984 -0.287508,-0.287539l7.87402e-006 -0.133945c0,-0.158563 0.128878,-0.287543 0.287492,-0.287543l0.141945 -3.93701e-006c0.036811,0 0.0666654,0.0298504 0.0666654,0.0666732 3.93701e-006,0.036811 -0.0298622,0.0666654 -0.0666693,0.0666654l-0.141933 -1.1811e-005c-0.085,0 -0.154177,0.0691929 -0.154177,0.15422l3.93701e-006 0.133937c0,0.0850315 0.0691654,0.154217 0.154165,0.154217l0.152083 -1.5748e-005c0.036815,0 0.0666654,0.0298622 0.0666654,0.0666811 7.87402e-006,0.0368189 -0.0298622,0.0666693 -0.0666654,0.0666654z"/><path class="fil0" d="M3.70167 2.81593l-0.152091 0c-0.0367992,0 -0.0666693,-0.0298465 -0.0666693,-0.0666654 1.1811e-005,-0.0368189 0.0298622,-0.0666654 0.0666693,-0.0666654l0.152091 -1.5748e-005c0.085,0 0.154157,-0.0691654 0.154157,-0.154193l1.5748e-005 -0.133945c0,-0.0850315 -0.0691811,-0.154209 -0.154181,-0.154209l-0.142083 -1.1811e-005c-0.0367992,0 -0.0666693,-0.0298346 -0.0666693,-0.0666535 1.1811e-005,-0.0368307 0.0298622,-0.0666693 0.0666693,-0.0666693l0.142091 -3.93701e-006c0.158469,0 0.287492,0.128992 0.287492,0.287547l7.87402e-006 0.133937c0,0.158563 -0.129035,0.287551 -0.2875,0.287547z"/><path class="fil0" d="M1.71083 4.03413l0.510705 0.540969 0.311795 -0.265685 -0.483047 -0.442142 -0.339453 0.166858zm0.505705 0.699469c-0.0177835,0 -0.0354291,-0.00704331 -0.0484803,-0.0208898l-0.61624 -0.652764c-0.0145945,-0.0154094 -0.0209843,-0.0367756 -0.0172323,-0.0576102 0.00374803,-0.0208465 0.0172205,-0.0386535 0.036248,-0.0479882l0.461531 -0.226811c0.0245945,-0.0120748 0.0541654,-0.00786614 0.0743031,0.0106614l0.572508 0.523823c0.0140315,0.0129094 0.021937,0.0312598 0.0215197,0.0503701 -0.000267717,0.0190984 -0.00875197,0.0371654 -0.0233346,0.0495551l-0.417638 0.355748c-0.0125,0.0106575 -0.0279173,0.0159173 -0.043185,0.0159055z"/><path class="fil0" d="M2.73486 4.30941l0.311811 0.265685 0.510689 -0.540969 -0.339437 -0.166858 -0.483063 0.442142zm0.316811 0.424185c-0.0154213,0 -0.0307047,-0.00523622 -0.0432008,-0.0159016l-0.417642 -0.355752c-0.0145787,-0.0123937 -0.0230551,-0.0304449 -0.0233307,-0.0495551 -0.000417323,-0.0191181 0.00749606,-0.0374567 0.0215276,-0.0503622l0.572508 -0.523835c0.0201378,-0.0185315 0.0497126,-0.022748 0.0742953,-0.0106535l0.461531 0.226795c0.0190315,0.00934252 0.0324961,0.0271654 0.036248,0.048 0.00375197,0.0208268 -0.0026378,0.0422205 -0.0172244,0.0576102l-0.616244 0.652764c-0.0130591,0.0138425 -0.0306969,0.0209016 -0.0484685,0.0208898z"/><path class="fil0" d="M1.30404 6.12482c-0.036815,0 -0.0666772,-0.0298583 -0.0666772,-0.0668071l3.93701e-006 -0.712224c0,-0.0368268 0.0298583,-0.0666614 0.0666614,-0.0666614 0.0368071,-1.1811e-005 0.0666693,0.0298465 0.0666693,0.0666654l1.1811e-005 0.712213c0,0.0369567 -0.029874,0.066815 -0.0666693,0.066815z"/><path class="fil0" d="M2.81014 4.92108l-0.352075 0c-0.0265315,0 -0.0505669,-0.0157362 -0.061126,-0.0400945l-0.12472 -0.287075c-0.0145787,-0.0337835 0.000834646,-0.0730354 0.0345827,-0.087689 0.0339016,-0.0147047 0.0730551,0.000818898 0.0877795,0.0345945l0.107232 0.246937 0.264579 0 0.107217 -0.246937c0.0147205,-0.0337835 0.0538858,-0.0492913 0.0877756,-0.0345945 0.0337559,0.0146417 0.0491693,0.0539134 0.0345866,0.0876929l-0.12472 0.287059c-0.0105472,0.0243583 -0.0345866,0.040122 -0.0611102,0.0401063z"/><path class="fil0" d="M2.30583 6.12482c-0.00276378,0 -0.00555512,-0.000275591 -0.00847244,-0.000555118 -0.0365276,-0.00472835 -0.0623622,-0.0380551 -0.0576378,-0.0745827l0.152236 -1.20361c0.00457874,-0.0365315 0.0379016,-0.0623701 0.0744291,-0.0577756 0.0365394,0.00462205 0.0623622,0.0379724 0.0577795,0.0745157l-0.152209 1.20367c-0.00431496,0.0336063 -0.0329291,0.0583425 -0.066126,0.0583425zm0.656531 0c-0.033189,0 -0.0618071,-0.0247205 -0.0661142,-0.0583307l-0.152213 -1.20369c-0.00457874,-0.0365472 0.0212402,-0.0698858 0.0577677,-0.0745118 0.0365433,-0.00456693 0.0698622,0.021252 0.0744449,0.0577795l0.152224 1.20361c0.00473228,0.0365315 -0.0211142,0.0698622 -0.0576417,0.0745866 -0.00290551,0.000271654 -0.00569291,0.000555118 -0.0084685,0.000555118z"/></g></g></svg>